<?xml version="1.0" encoding="UTF-8"?>
<svg width="33px" height="32px" version="1.1" viewBox="0 0 33 32" xmlns="http://www.w3.org/2000/svg" xmlns:xlink="http://www.w3.org/1999/xlink">
 <defs>
  <filter id="filter-1" x="-.12857" y="-.12857" width="1.2571" height="1.3286">
   <feOffset dx="0" dy="1" in="SourceAlpha" result="shadowOffsetOuter1"/>
   <feGaussianBlur in="shadowOffsetOuter1" result="shadowBlurOuter1" stdDeviation="1"/>
   <feColorMatrix in="shadowBlurOuter1" result="shadowMatrixOuter1" values="0 0 0 0 0   0 0 0 0 0   0 0 0 0 0  0 0 0 0.3 0"/>
   <feMerge>
    <feMergeNode in="shadowMatrixOuter1"/>
    <feMergeNode in="SourceGraphic"/>
   </feMerge>
  </filter>
  <filter id="filter-2" x="-.042857" y="-.042857" width="1.0857" height="1.1214">
   <feOffset dx="0" dy="1" in="SourceAlpha" result="shadowOffsetOuter1"/>
   <feGaussianBlur in="shadowOffsetOuter1" result="shadowBlurOuter1" stdDeviation="0.5"/>
   <feColorMatrix in="shadowBlurOuter1" result="shadowMatrixOuter1" values="0 0 0 0 0   0 0 0 0 0   0 0 0 0 0  0 0 0 0.15 0"/>
   <feMerge>
    <feMergeNode in="shadowMatrixOuter1"/>
    <feMergeNode in="SourceGraphic"/>
   </feMerge>
  </filter>
  <linearGradient id="linearGradient-3" x1="50%" x2="50%" y1="2.4418%" y2="108.46%">
   <stop stop-color="#F7F7F7" offset="0"/>
   <stop stop-color="#F7F7F7" offset="1"/>
  </linearGradient>
  <linearGradient id="linearGradient-4" x1="50%" x2="50%" y1="4.1522%" y2="100%">
   <stop stop-color="#8796A1" stop-opacity=".19581" offset="0"/>
   <stop stop-color="#2F4355" stop-opacity=".26929" offset="1"/>
  </linearGradient>
  <linearGradient id="linearGradient-5" x1="110.8%" x2="0%" y1="17.938%" y2="17.938%">
   <stop stop-color="#C970FB" offset="0"/>
   <stop stop-color="#3D48FF" offset="1"/>
  </linearGradient>
  <polygon id="path-6" points="9 15 19 15 19 17 14 17 14 20"/>
  <filter id="filter-7" x="0" y="-.2" width="1">
   <feOffset dx="0" dy="-1" in="SourceAlpha" result="shadowOffsetInner1"/>
   <feComposite in="shadowOffsetInner1" in2="SourceAlpha" k2="-1" k3="1" operator="arithmetic" result="shadowInnerInner1"/>
   <feColorMatrix in="shadowInnerInner1" values="0 0 0 0 0   0 0 0 0 0   0 0 0 0 0  0 0 0 0.105475579 0"/>
  </filter>
  <linearGradient id="linearGradient-8" x1="-14.392%" x2="119.03%">
   <stop stop-color="#17EFFC" offset="0"/>
   <stop stop-color="#7155F7" offset="1"/>
  </linearGradient>
  <polygon id="path-9" points="9 8 19 8 19 9.9999 14 10 14 13"/>
  <filter id="filter-10" x="0" y="0" width="1">
   <feOffset dx="0" dy="1" in="SourceAlpha" result="shadowOffsetInner1"/>
   <feComposite in="shadowOffsetInner1" in2="SourceAlpha" k2="-1" k3="1" operator="arithmetic" result="shadowInnerInner1"/>
   <feColorMatrix in="shadowInnerInner1" values="0 0 0 0 0   0 0 0 0 0   0 0 0 0 0  0 0 0 0.10612093 0"/>
  </filter>
  <linearGradient id="linearGradient-11" x1="43.066%" x2="43.066%" y1="4.4815%" y2="97.913%">
   <stop stop-color="#C3C4D0" offset="0"/>
   <stop stop-color="#5B5E70" offset="1"/>
  </linearGradient>
 </defs>
 <g fill="none" fill-rule="evenodd">
  <g id="尺寸" transform="translate(-792 -176)">
   <g id="编组-6备份" transform="translate(780 167)">
    <g id="-mockplus-" transform="translate(12.766 9)">
     <g id="App_icon/music" transform="translate(2 2)" filter="url(#filter-1)">
      <g id="编组" filter="url(#filter-2)">
       <rect id="矩形" width="28" height="28" rx="5" fill="url(#linearGradient-3)"/>
       <g fill-rule="nonzero">
        <path id="矩形备份" d="m23 0c2.7614 0 5 2.2386 5 5v18c0 2.7614-2.2386 5-5 5h-18c-2.7614 0-5-2.2386-5-5v-18c0-2.7614 2.2386-5 5-5h18zm0 2h-18c-1.5977 0-2.9037 1.2489-2.9949 2.8237l-0.0050927 0.17627v18c0 1.5977 1.2489 2.9037 2.8237 2.9949l0.17627 0.0050927h18c1.5977 0 2.9037-1.2489 2.9949-2.8237l0.0050927-0.17627v-18c0-1.5977-1.2489-2.9037-2.8237-2.9949l-0.17627-0.0050927z" fill="url(#linearGradient-4)"/>
        <g id="路径" opacity=".85225">
         <use fill="url(#linearGradient-5)" xlink:href="#path-6"/>
         <use fill="black" filter="url(#filter-7)" xlink:href="#path-6"/>
        </g>
        <g transform="translate(14 10.5) rotate(180) translate(-14 -10.5)">
         <use fill="url(#linearGradient-8)" xlink:href="#path-9"/>
         <use fill="black" filter="url(#filter-10)" xlink:href="#path-9"/>
        </g>
        <path d="m23 6c0.55228 0 1 0.44772 1 1v14c0 0.55228-0.44772 1-1 1s-1-0.44772-1-1v-14c0-0.55228 0.44772-1 1-1z" fill="url(#linearGradient-11)"/>
        <path d="m5 6c0.55228 0 1 0.44772 1 1v14c0 0.55228-0.44772 1-1 1s-1-0.44772-1-1v-14c0-0.55228 0.44772-1 1-1z" fill="url(#linearGradient-11)"/>
       </g>
      </g>
     </g>
    </g>
   </g>
  </g>
 </g>
</svg>
