<?xml version="1.0" encoding="UTF-8"?>
<svg width="32px" height="32px" viewBox="0 0 32 32" version="1.1" xmlns="http://www.w3.org/2000/svg" xmlns:xlink="http://www.w3.org/1999/xlink">
    <title>app/PC-collaboration/32px</title>
    <defs>
        <filter x="-7.1%" y="-3.6%" width="114.3%" height="114.3%" filterUnits="objectBoundingBox" id="filter-1">
            <feOffset dx="0" dy="1" in="SourceAlpha" result="shadowOffsetOuter1"></feOffset>
            <feGaussianBlur stdDeviation="0.5" in="shadowOffsetOuter1" result="shadowBlurOuter1"></feGaussianBlur>
            <feColorMatrix values="0 0 0 0 0   0 0 0 0 0   0 0 0 0 0  0 0 0 0.15 0" type="matrix" in="shadowBlurOuter1" result="shadowMatrixOuter1"></feColorMatrix>
            <feMerge>
                <feMergeNode in="shadowMatrixOuter1"></feMergeNode>
                <feMergeNode in="SourceGraphic"></feMergeNode>
            </feMerge>
        </filter>
        <linearGradient x1="50%" y1="2.44175981%" x2="50%" y2="108.46406%" id="linearGradient-2">
            <stop stop-color="#F7F7F7" offset="0%"></stop>
            <stop stop-color="#F7F7F7" offset="100%"></stop>
        </linearGradient>
        <linearGradient x1="50%" y1="4.15215062%" x2="50%" y2="100%" id="linearGradient-3">
            <stop stop-color="#8796A1" stop-opacity="0.195814439" offset="0%"></stop>
            <stop stop-color="#2F4355" stop-opacity="0.269287109" offset="100%"></stop>
        </linearGradient>
        <linearGradient x1="110.798211%" y1="17.9381684%" x2="0%" y2="17.9381684%" id="linearGradient-4">
            <stop stop-color="#C970FB" offset="0%"></stop>
            <stop stop-color="#3D48FF" offset="100%"></stop>
        </linearGradient>
        <polygon id="path-5" points="9 15 19 15 19 16.9999443 14 17 14 20"></polygon>
        <filter x="-5.0%" y="-10.0%" width="110.0%" height="120.0%" filterUnits="objectBoundingBox" id="filter-6">
            <feOffset dx="0" dy="-1" in="SourceAlpha" result="shadowOffsetInner1"></feOffset>
            <feComposite in="shadowOffsetInner1" in2="SourceAlpha" operator="arithmetic" k2="-1" k3="1" result="shadowInnerInner1"></feComposite>
            <feColorMatrix values="0 0 0 0 0   0 0 0 0 0   0 0 0 0 0  0 0 0 0.105475579 0" type="matrix" in="shadowInnerInner1"></feColorMatrix>
        </filter>
        <linearGradient x1="-14.3920397%" y1="0%" x2="119.034024%" y2="0%" id="linearGradient-7">
            <stop stop-color="#17EFFC" offset="0%"></stop>
            <stop stop-color="#7155F7" offset="100%"></stop>
        </linearGradient>
        <polygon id="path-8" points="9 8 19 8 19 9.99994435 14 10 14 13"></polygon>
        <filter x="-5.0%" y="-10.0%" width="110.0%" height="120.0%" filterUnits="objectBoundingBox" id="filter-9">
            <feOffset dx="0" dy="1" in="SourceAlpha" result="shadowOffsetInner1"></feOffset>
            <feComposite in="shadowOffsetInner1" in2="SourceAlpha" operator="arithmetic" k2="-1" k3="1" result="shadowInnerInner1"></feComposite>
            <feColorMatrix values="0 0 0 0 0   0 0 0 0 0   0 0 0 0 0  0 0 0 0.10612093 0" type="matrix" in="shadowInnerInner1"></feColorMatrix>
        </filter>
        <linearGradient x1="43.0658849%" y1="4.48152103%" x2="43.0658849%" y2="97.9131011%" id="linearGradient-10">
            <stop stop-color="#C3C4D0" offset="0%"></stop>
            <stop stop-color="#5B5E70" offset="100%"></stop>
        </linearGradient>
    </defs>
    <g id="app/PC-collaboration/32px" stroke="none" stroke-width="1" fill="none" fill-rule="evenodd">
        <g id="编组" filter="url(#filter-1)" transform="translate(2, 2)">
            <rect id="矩形" fill="url(#linearGradient-2)" x="0" y="0" width="28" height="28" rx="5"></rect>
            <path d="M23,0 C25.7614237,0 28,2.23857625 28,5 L28,23 C28,25.7614237 25.7614237,28 23,28 L5,28 C2.23857625,28 0,25.7614237 0,23 L0,5 C0,2.23857625 2.23857625,0 5,0 L23,0 Z M23,2 L5,2 C3.40231912,2 2.09633912,3.24891996 2.00509269,4.82372721 L2,5 L2,23 C2,24.5976809 3.24891996,25.9036609 4.82372721,25.9949073 L5,26 L23,26 C24.5976809,26 25.9036609,24.75108 25.9949073,23.1762728 L26,23 L26,5 C26,3.40231912 24.75108,2.09633912 23.1762728,2.00509269 L23,2 Z" id="矩形备份" fill="url(#linearGradient-3)" fill-rule="nonzero"></path>
            <g id="路径" opacity="0.852246966" fill-rule="nonzero">
                <use fill="url(#linearGradient-4)" xlink:href="#path-5"></use>
                <use fill="black" fill-opacity="1" filter="url(#filter-6)" xlink:href="#path-5"></use>
            </g>
            <g id="路径" fill-rule="nonzero" transform="translate(14, 10.5) rotate(-180) translate(-14, -10.5)">
                <use fill="url(#linearGradient-7)" xlink:href="#path-8"></use>
                <use fill="black" fill-opacity="1" filter="url(#filter-9)" xlink:href="#path-8"></use>
            </g>
            <path d="M23,6 C23.5522847,6 24,6.44771525 24,7 L24,21 C24,21.5522847 23.5522847,22 23,22 C22.4477153,22 22,21.5522847 22,21 L22,7 C22,6.44771525 22.4477153,6 23,6 Z" id="矩形" fill="url(#linearGradient-10)" fill-rule="nonzero"></path>
            <path d="M5,6 C5.55228475,6 6,6.44771525 6,7 L6,21 C6,21.5522847 5.55228475,22 5,22 C4.44771525,22 4,21.5522847 4,21 L4,7 C4,6.44771525 4.44771525,6 5,6 Z" id="矩形" fill="url(#linearGradient-10)" fill-rule="nonzero"></path>
        </g>
    </g>
</svg>