<?xml version="1.0" encoding="UTF-8"?>
<svg width="18px" height="18px" viewBox="0 0 18 18" version="1.1" xmlns="http://www.w3.org/2000/svg" xmlns:xlink="http://www.w3.org/1999/xlink">
    <title>icon/功能图标/历史</title>
    <g id="新" stroke="none" stroke-width="1" fill="none" fill-rule="evenodd">
        <g id="跨端协同-切图" transform="translate(-112, -25)" fill="#536076">
            <g id="icon/功能图标/历史" transform="translate(113, 26)">
                <path d="M12.75,3.55271368e-15 C13.3368025,3.55271368e-15 13.8125,0.473583242 13.8125,1.05777778 L13.8129145,4.86568155 C15.7048295,5.82871058 17,7.78822032 17,10.0488889 C17,13.2619588 14.383664,15.8666667 11.15625,15.8666667 C9.90551774,15.8666667 8.74655871,15.4754851 7.79608054,14.809311 L1.0625,14.8088889 C0.475697453,14.8088889 0,14.3353056 0,13.7511111 L0,1.05777778 C0,0.473583242 0.475697453,3.55271368e-15 1.0625,3.55271368e-15 L12.75,3.55271368e-15 Z M11.1386933,5.48385914 C8.55759887,5.48385914 6.46520843,7.56966461 6.46520843,10.142636 C6.46520843,12.7156075 8.55759887,14.8014129 11.1386933,14.8014129 C13.7197877,14.8014129 15.8121781,12.7156075 15.8121781,10.142636 C15.8121781,7.56966461 13.7197877,5.48385914 11.1386933,5.48385914 Z M7.14519477,5.71308715 L1.35677774,5.71291468 L1.35677774,13.7228222 L6.2587003,13.7245673 C5.66029648,12.8115838 5.3125,11.220372 5.3125,10.0488889 C5.3125,8.4799502 5.93632834,6.95120375 6.95051689,5.90480627 L7.14519477,5.71308715 Z M10.8399754,8 C11.1656569,8 11.4296738,8.26401695 11.4296738,8.58969836 L11.4292771,10.39 L12.619002,10.3904554 C12.9446834,10.3904554 13.2087004,10.6544723 13.2087004,10.9801537 C13.2087004,11.3058351 12.9446834,11.5698521 12.619002,11.5698521 L10.8399754,11.5698521 C10.514294,11.5698521 10.2502771,11.3058351 10.2502771,10.9801537 L10.2502771,8.58969836 C10.2502771,8.26401695 10.514294,8 10.8399754,8 Z M12.6764438,1.37932208 L1.36,1.37932208 L1.36,4.42953359 L12.6764438,4.42953359 L12.6764438,1.37932208 Z" id="形状"></path>
            </g>
        </g>
    </g>
</svg>