<?xml version="1.0" encoding="UTF-8"?>
<svg width="16px" height="16px" viewBox="0 0 16 16" version="1.1" xmlns="http://www.w3.org/2000/svg" xmlns:xlink="http://www.w3.org/1999/xlink">
    <title>ICON</title>
    <g id="控件" stroke="none" stroke-width="1" fill="none" fill-rule="evenodd" fill-opacity="0.7">
        <g id="标题栏/文管" transform="translate(-20, -17)" fill="#000000">
            <g id="编组-12" transform="translate(10, 7)">
                <g id="ICON" transform="translate(11, 11)">
                    <path d="M14,5.50010708 L14,2.0003571 L12.8568261,3.14177556 C11.5603812,1.18054243 9.36428336,0.000320849561 7.01076576,0 C3.13909653,0 0,3.13377613 0,7 C0,10.8662237 3.13909653,14 7.01076576,14 C9.86487295,14.0005676 12.4344737,12.2736542 13.50828,9.63331181 C13.589051,9.43477564 13.5576057,9.20829602 13.4257894,9.03918564 C13.2939731,8.87007525 13.0818117,8.78402598 12.8692245,8.81345176 C12.6566372,8.84287754 12.475921,8.98330789 12.39515,9.18184406 C11.504993,11.3695509 9.37575491,12.8003733 7.01076576,12.8000856 C3.80256805,12.8000856 1.20175972,10.2032711 1.20175972,7 C1.20175972,3.79672877 3.80256805,1.19991428 7.01076576,1.19991428 C9.08330055,1.19991428 10.9530384,2.29483606 11.9870525,4.00971355 L10.4948675,5.50010708 L14,5.50010708 Z" id="路径" transform="translate(7, 7) scale(-1, 1) translate(-7, -7)"></path>
                </g>
            </g>
        </g>
    </g>
</svg>