<?xml version="1.0" encoding="UTF-8"?>
<svg width="14px" height="14px" viewBox="0 0 14 14" version="1.1" xmlns="http://www.w3.org/2000/svg" xmlns:xlink="http://www.w3.org/1999/xlink">
    <title>路径</title>
    <g id="新" stroke="none" stroke-width="1" fill="none" fill-rule="evenodd">
        <g id="跨端协同-切图" transform="translate(-34, -71)" fill="#626E88" fill-rule="nonzero">
            <path d="M48,76.5001071 L48,73.0003571 L46.8568261,74.1417756 C45.5603812,72.1805424 43.3642834,71.0003208 41.0107658,71 C37.1390965,71 34,74.1337761 34,78 C34,81.8662237 37.1390965,85 41.0107658,85 C43.8648729,85.0005676 46.4344737,83.2736542 47.50828,80.6333118 C47.589051,80.4347756 47.5576057,80.208296 47.4257894,80.0391856 C47.2939731,79.8700752 47.0818117,79.784026 46.8692245,79.8134518 C46.6566372,79.8428775 46.475921,79.9833079 46.39515,80.1818441 C45.504993,82.3695509 43.3757549,83.8003733 41.0107658,83.8000856 C37.802568,83.8000856 35.2017597,81.2032711 35.2017597,78 C35.2017597,74.7967288 37.802568,72.1999143 41.0107658,72.1999143 C43.0833005,72.1999143 44.9530384,73.2948361 45.9870525,75.0097136 L44.4948675,76.5001071 L48,76.5001071 Z" id="路径" transform="translate(41, 78) scale(-1, 1) translate(-41, -78)"></path>
        </g>
    </g>
</svg>