<?xml version="1.0" encoding="UTF-8"?>
<svg width="64px" height="64px" viewBox="0 0 64 64" version="1.1" xmlns="http://www.w3.org/2000/svg" xmlns:xlink="http://www.w3.org/1999/xlink">
    <title>zip-64</title>
    <defs>
        <linearGradient x1="50%" y1="0%" x2="50%" y2="100%" id="linearGradient-1">
            <stop stop-color="#D3D3D3" offset="0%"></stop>
            <stop stop-color="#AFAFAF" offset="100%"></stop>
        </linearGradient>
        <path d="M53,54.5 C53,56.9852814 50.9852814,59 48.5,59 L15.5,59 C13.0147186,59 11,56.9852814 11,54.5 L11,11.5 C11,9.01471863 13.0147186,7 15.5,7 L40,7 L53,20 L53,54.5 Z" id="path-2"></path>
        <filter x="-15.5%" y="-10.6%" width="131.0%" height="125.0%" filterUnits="objectBoundingBox" id="filter-3">
            <feOffset dx="0" dy="1" in="SourceAlpha" result="shadowOffsetOuter1"></feOffset>
            <feGaussianBlur stdDeviation="2" in="shadowOffsetOuter1" result="shadowBlurOuter1"></feGaussianBlur>
            <feColorMatrix values="0 0 0 0 0.599134362   0 0 0 0 0.599134362   0 0 0 0 0.599134362  0 0 0 0.5 0" type="matrix" in="shadowBlurOuter1"></feColorMatrix>
        </filter>
        <linearGradient x1="50%" y1="50%" x2="10.4891306%" y2="91.1942727%" id="linearGradient-4">
            <stop stop-color="#FFFFFF" stop-opacity="0.1" offset="0%"></stop>
            <stop stop-color="#FFFFFF" stop-opacity="0.3" offset="100%"></stop>
        </linearGradient>
        <path d="M40,7 L53,20 L44.5,20 C42.0147186,20 40,17.9852814 40,15.5 L40,7 Z" id="path-5"></path>
        <filter x="-26.9%" y="-19.2%" width="153.8%" height="153.8%" filterUnits="objectBoundingBox" id="filter-6">
            <feOffset dx="0" dy="1" in="SourceAlpha" result="shadowOffsetOuter1"></feOffset>
            <feGaussianBlur stdDeviation="1" in="shadowOffsetOuter1" result="shadowBlurOuter1"></feGaussianBlur>
            <feComposite in="shadowBlurOuter1" in2="SourceAlpha" operator="out" result="shadowBlurOuter1"></feComposite>
            <feColorMatrix values="0 0 0 0 0   0 0 0 0 0   0 0 0 0 0  0 0 0 0.05 0" type="matrix" in="shadowBlurOuter1"></feColorMatrix>
        </filter>
    </defs>
    <g id="zip-64" stroke="none" stroke-width="1" fill="none" fill-rule="evenodd">
        <g id="编组">
            <g id="路径">
                <use fill="black" fill-opacity="1" filter="url(#filter-3)" xlink:href="#path-2"></use>
                <use fill="url(#linearGradient-1)" fill-rule="evenodd" xlink:href="#path-2"></use>
            </g>
            <g id="折角">
                <use fill="black" fill-opacity="1" filter="url(#filter-6)" xlink:href="#path-5"></use>
                <use fill="url(#linearGradient-4)" fill-rule="evenodd" xlink:href="#path-5"></use>
            </g>
            <g id="Group" transform="translate(11, 27)">
                <path d="M15,2 L15,7 L0,7 L0,2 L15,2 Z M42,2 L42,7 L27,7 L27,2 L42,2 Z M18,2 L24,2 L24,7 L18,7 L18,6 L23,6 L23,3 L18,3 L18,2 Z" id="Combined-Shape" fill-opacity="0.5" fill="#FFF8F8"></path>
                <path d="M25,0 C25.5522847,-1.01453063e-16 26,0.44771525 26,1 L26,8 C26,8.55228475 25.5522847,9 25,9 L17,9 C16.4477153,9 16,8.55228475 16,8 L16,1 C16,0.44771525 16.4477153,1.01453063e-16 17,0 L25,0 Z M17,8 L25,8 L25,1 L17,1 L17,4 L22,4 L22,5 L17,5 L17,8 Z" id="Combined-Shape" fill="#F4F4F4"></path>
            </g>
        </g>
    </g>
</svg>