<?xml version="1.0" encoding="UTF-8"?>
<svg width="16px" height="16px" version="1.1" viewBox="0 0 16 16" xmlns="http://www.w3.org/2000/svg">
 <g fill="none" fill-opacity=".7" fill-rule="evenodd">
  <g id="投屏界面-竖屏" transform="translate(-1617 -404)" fill="#000" fill-rule="nonzero">
   <g transform="translate(1317 344)">
    <g id="编组" transform="translate(122 50)">
     <g transform="translate(168)">
      <g id="-mockplus-" transform="translate(10 10)">
       <g id="ICON-/-Action-/-Add" transform="translate(1.1429 1.0344)">
        <path id="形状" d="m9.0521 0.79467 3.4286 2.8571c0.78169 0.65141 1.2337 1.6164 1.2337 2.6339v4.1084c0 1.8935-1.535 3.4286-3.4286 3.4286h-6.8571c-1.8935 0-3.4286-1.535-3.4286-3.4286v-4.1084c0-1.0175 0.45196-1.9825 1.2337-2.6339l3.4286-2.8571c1.2715-1.0596 3.1184-1.0596 4.3898 0zm-3.5048 0.76065-0.15341 0.11732-3.4286 2.8571c-0.46901 0.39084-0.75998 0.95101-0.81348 1.5537l-0.0089578 0.20228v4.1084c0 1.205 0.93243 2.1922 2.1151 2.2794l0.17059 0.0062694h6.8571c1.205 0 2.1922-0.93243 2.2794-2.1151l0.0062694-0.17059v-4.1084c0-0.61052-0.24406-1.1927-0.67277-1.6196l-0.14966-0.13638-3.4286-2.8571c-0.79779-0.66482-1.9354-0.70393-2.7731-0.11732zm3.0242 7.696c0.31559 0 0.57143 0.25584 0.57143 0.57143 0 0.31559-0.25584 0.57143-0.57143 0.57143h-3.4286c-0.31559 0-0.57143-0.25584-0.57143-0.57143 0-0.31559 0.25584-0.57143 0.57143-0.57143h3.4286z"/>
       </g>
      </g>
     </g>
    </g>
   </g>
  </g>
 </g>
</svg>
