<?xml version="1.0" encoding="UTF-8"?>
<svg width="16px" height="16px" version="1.1" viewBox="0 0 16 16" xmlns="http://www.w3.org/2000/svg">
 <g fill="none" fill-opacity=".7" fill-rule="evenodd">
  <g id="投屏界面-竖屏" transform="translate(-1533 -404)" fill="#000" fill-rule="nonzero">
   <g transform="translate(1317 344)">
    <g id="编组" transform="translate(122 50)">
     <g transform="translate(84)">
      <g id="-mockplus-" transform="translate(10 10)">
       <g id="ICON-/-Action-/-Add" transform="translate(1.1429 2.2857)">
        <path id="形状" d="m6.8997 7.03c-0.19474 0-0.36479-0.032296-0.50468-0.096215l-5.9814-2.727c-0.25645-0.11775-0.41005-0.33978-0.41354-0.59546-0.0026771-0.18637 0.078236-0.54096 0.64874-0.82355l5.1572-2.548c0.49165-0.24356 1.1403-0.31758 1.514-0.14735l5.9807 2.729c0.2544 0.11573 0.40868 0.33776 0.41354 0.59344 0.0026766 0.18637-0.07755 0.5423-0.65011 0.82556l-5.1572 2.5487c-0.31356 0.15218-0.65754 0.23443-1.0073 0.24087zm-0.074741-1.0133c0.0047999 0 0.030171 0.004037 0.074056 0.004037 0.16594 0 0.37988-0.052481 0.54513-0.13457l4.8657-2.404-5.4205-2.4733c0.0034285 0.0013457-0.025371-0.0033642-0.074056-0.0033642-0.16663 0-0.38125 0.053154-0.54719 0.13524l-4.8657 2.4047 5.4225 2.4713c-6.8569e-4 6.7283e-4 -6.8569e-4 0 0 0zm1.0814 3.7847 5.1572-2.5487c0.57256-0.28326 0.65279-0.63852 0.65011-0.82556-0.0048661-0.25568-0.15915-0.47771-0.41423-0.59344-0.17141-0.076625-0.37174-0.055583-0.52274 0.054908-0.151 0.11049-0.22869 0.2929-0.20274 0.47596l-5.1304 2.5352c-0.25508 0.12649-0.55062 0.15071-0.61645 0.13255l-5.511-2.5137c0.12268-0.19213 0.099716-0.44096-0.056152-0.60833-0.15587-0.16737-0.40636-0.2122-0.61241-0.10958-0.56982 0.28326-0.65004 0.63784-0.64737 0.82489 0.0041805 0.25433 0.15778 0.47636 0.41286 0.59411l5.9814 2.729c0.14948 0.067956 0.32434 0.096888 0.50742 0.096888 0.34916-0.0073737 0.69228-0.090798 1.0046-0.24424zm0 2.5265 5.1572-2.548c0.57256-0.28326 0.65279-0.63852 0.65011-0.82556-0.0048661-0.25568-0.15915-0.47771-0.41423-0.59411-0.17142-0.076141-0.37146-0.05489-0.5223 0.055486s-0.22865 0.29245-0.20317 0.47538l-5.1297 2.5352c-0.25645 0.12649-0.5513 0.15004-0.61713 0.13255l-5.511-2.513c0.095295-0.14977 0.10413-0.33745 0.023314-0.4952-0.061116-0.11989-0.16851-0.21085-0.2983-0.25267-0.12979-0.041821-0.27124-0.031033-0.39289 0.029965-0.56982 0.28259-0.65073 0.63717-0.64805 0.82355 0.0034943 0.255 0.15709 0.47704 0.41354 0.59546l5.9821 2.729c0.1488 0.067283 0.32365 0.095542 0.50536 0.095542 0.34927-0.0075768 0.69252-0.090746 1.0052-0.24356z"/>
       </g>
      </g>
     </g>
    </g>
   </g>
  </g>
 </g>
</svg>
