<?xml version="1.0" encoding="UTF-8"?>
<svg width="16px" height="16px" version="1.1" viewBox="0 0 16 16" xmlns="http://www.w3.org/2000/svg">
 <g fill="none" fill-opacity=".7" fill-rule="evenodd">
  <g id="投屏界面-竖屏" transform="translate(-1449 -404)" fill="#000" fill-rule="nonzero">
   <g transform="translate(1317 344)">
    <g transform="translate(122 50)">
     <g id="-mockplus-" transform="translate(10 10)">
      <g id="ICON-/-Action-/-Add" transform="translate(1.1429 2.2857)">
       <g id="编组" transform="translate(0)">
        <path id="路径" d="m10.565 4.4205h-8.7523l4.2561-3.5924c0.20601-0.17388 0.22458-0.47341 0.041451-0.66904-0.18311-0.19558-0.49848-0.21327-0.70451-0.039362l-5.216 4.4027c-0.11574 0.086787-0.19014 0.22113-0.19014 0.37205v6.3017e-4 5.9786e-4c0 0.0074813 2.5525e-4 0.014947 6.2959e-4 0.022396 1.7011e-5 2.5854e-4 1.7011e-5 5.1707e-4 1.7011e-5 7.7561e-4 0.0065341 0.12681 0.066396 0.24625 0.16686 0.331l5.2386 4.4218c0.095068 0.080275 0.21343 0.1197 0.33134 0.1197 0.13759 0 0.2746-0.053743 0.37318-0.15908 0.18311-0.1956 0.16456-0.49514-0.041451-0.66901l-4.259-3.5949h8.7552c1.8161 0 3.2937 1.4031 3.2937 3.1277 0 1.7246-1.4775 3.1277-3.2937 3.1277h-5.7542c-0.27561 0-0.49904 0.21218-0.49904 0.47389 0 0.26172 0.22344 0.47389 0.49904 0.47389h5.7542c2.3665 0 4.2918-1.8283 4.2918-4.0755 0-2.2472-1.9253-4.0754-4.2918-4.0754z"/>
       </g>
      </g>
     </g>
    </g>
   </g>
  </g>
 </g>
</svg>
