<?xml version="1.0" encoding="UTF-8"?>
<svg width="16px" height="16px" version="1.1" viewBox="0 0 16 16" xmlns="http://www.w3.org/2000/svg">
 <g fill="none" fill-rule="evenodd">
  <g id="投屏界面-竖屏" transform="translate(-1701 -404)">
   <g transform="translate(1317 344)">
    <g transform="translate(122 50)">
     <g transform="translate(252)">
      <g id="-mockplus-" transform="translate(10 10)">
       <g id="ICON-/-Action-/-Add" transform="translate(2 1)">
        <path id="形状结合" d="m2 14c-1.1046 0-2-0.89543-2-2v-10c0-1.1046 0.89543-2 2-2h8c1.1046 0 2 0.89543 2 2l9.561e-4 5.3553c0.62179 0.705 0.99904 1.6308 0.99904 2.6447 0 2.1654-1.7207 3.9289-3.8693 3.9979l-7.1307 0.0020948zm8-13h-8c-0.55228 0-1 0.44772-1 1v10c0 0.55228 0.44772 1 1 1l4.3553 9.561e-4c-0.83105-0.73297-1.3553-1.8057-1.3553-3.001 0-2.2091 1.7909-4 4-4 0.72903 0 1.4125 0.19503 2.0011 0.53577l-0.0011092-4.5358c0-0.55228-0.44772-1-1-1zm-1 6c-1.6569 0-3 1.3431-3 3 0 1.6569 1.3431 3 3 3 1.6569 0 3-1.3431 3-3 0-1.6569-1.3431-3-3-3zm0 1c1.1046 0 2 0.89543 2 2s-0.89543 2-2 2v-4zm-0.5-6c0.27614 0 0.5 0.22386 0.5 0.5s-0.22386 0.5-0.5 0.5h-5c-0.27614 0-0.5-0.22386-0.5-0.5s0.22386-0.5 0.5-0.5h5z" fill="#000" fill-opacity=".7" fill-rule="nonzero"/>
       </g>
      </g>
     </g>
    </g>
   </g>
  </g>
 </g>
</svg>
