<?xml version="1.0" encoding="UTF-8"?>
<svg width="16px" height="16px" viewBox="0 0 16 16" version="1.1" xmlns="http://www.w3.org/2000/svg" xmlns:xlink="http://www.w3.org/1999/xlink">
    <g id="页面-1" stroke="none" stroke-width="1" fill="none" fill-rule="evenodd" fill-opacity="0.7">
        <g id="投屏界面-竖屏" transform="translate(-1449.000000, -404.000000)" fill="#000000" fill-rule="nonzero">
            <g id="编组-3" transform="translate(1317.000000, 344.000000)">
                <g id="编组" transform="translate(122.000000, 50.000000)">
                    <g id="-mockplus-" transform="translate(10.000000, 10.000000)">
                        <g id="ICON-/-Action-/-Add" transform="translate(1.142857, 2.285714)">
                            <g id="编组" transform="translate(0.000000, 0.000000)">
                                <path d="M10.5653732,4.42051996 L1.8131204,4.42051996 L6.06920758,0.82810471 C6.27522001,0.654224218 6.29378444,0.354696044 6.1106585,0.159066354 C5.92754957,-0.0365148599 5.61217546,-0.054208314 5.406146,0.119704501 L0.190136518,4.52236633 C0.0743938392,4.60915308 0,4.74349396 0,4.89441338 C0,4.89462344 0,4.8948335 0,4.89504355 C0,4.89523746 0,4.89544752 0,4.89564141 C0,4.90312275 0.000255246421,4.91058792 0.000629585667,4.91803694 C0.000646596552,4.91829548 0.000646596552,4.91855401 0.000646596552,4.91881255 C0.00718073864,5.04562363 0.0670429418,5.16506649 0.167505273,5.24981727 L5.40612899,9.6715783 C5.50119726,9.75185321 5.61956039,9.79127969 5.73746409,9.79127969 C5.87505528,9.79127969 6.01206791,9.73753688 6.11064147,9.63220028 C6.2937504,9.4366029 6.27520298,9.13705857 6.06919055,8.96319423 L1.81017662,5.36827444 L10.5653561,5.36827444 C12.3815054,5.36827444 13.8590367,6.77134022 13.8590367,8.49595807 C13.8590367,10.2205759 12.3815054,11.6236417 10.5653561,11.6236417 L4.81116536,11.6236417 C4.53555759,11.6236417 4.3121208,11.8358176 4.3121208,12.0975352 C4.3121208,12.3592527 4.53555759,12.5714286 4.81116536,12.5714286 L10.5653732,12.5714286 C12.9318702,12.5714286 14.8571429,10.7431708 14.8571429,8.4959581 C14.8571429,6.24874544 12.9318531,4.42051996 10.5653732,4.42051996 Z" id="路径"></path>
                            </g>
                        </g>
                    </g>
                </g>
            </g>
        </g>
    </g>
</svg>