<?xml version="1.0" encoding="UTF-8"?>
<svg width="16px" height="16px" viewBox="0 0 16 16" version="1.1" xmlns="http://www.w3.org/2000/svg" xmlns:xlink="http://www.w3.org/1999/xlink">
    <g id="页面-1" stroke="none" stroke-width="1" fill="none" fill-rule="evenodd" fill-opacity="0.7">
        <g id="投屏界面-竖屏" transform="translate(-1617.000000, -404.000000)" fill="#000000" fill-rule="nonzero">
            <g id="编组-3" transform="translate(1317.000000, 344.000000)">
                <g id="编组" transform="translate(122.000000, 50.000000)">
                    <g id="-mockplus-" transform="translate(168.000000, 0.000000)">
                        <g id="-mockplus-" transform="translate(10.000000, 10.000000)">
                            <g id="ICON-/-Action-/-Add" transform="translate(1.142857, 1.034428)">
                                <path d="M9.0520608,0.794669899 L12.4806322,3.65181276 C13.2623211,4.30322016 13.7142857,5.2681834 13.7142857,6.28571429 L13.7142857,10.394143 C13.7142857,12.2876908 12.179262,13.8227145 10.2857143,13.8227145 L3.42857143,13.8227145 C1.53502371,13.8227145 -1.77635684e-15,12.2876908 -1.77635684e-15,10.394143 L-1.77635684e-15,6.28571429 C-1.77635684e-15,5.2681834 0.451964606,4.30322016 1.23365349,3.65181276 L4.66222492,0.794669899 C5.93369675,-0.264889966 7.78058896,-0.264889966 9.0520608,0.794669899 Z M5.54727514,1.55531557 L5.39386423,1.67263708 L1.9652928,4.52977993 C1.49627947,4.92062437 1.20531725,5.48078897 1.15181494,6.08343345 L1.14285714,6.28571429 L1.14285714,10.394143 C1.14285714,11.599128 2.0752889,12.5863318 3.25798589,12.6735879 L3.42857143,12.6798573 L10.2857143,12.6798573 C11.4906992,12.6798573 12.477903,11.7474256 12.5651592,10.5647286 L12.5714286,10.394143 L12.5714286,6.28571429 C12.5714286,5.67519575 12.3273677,5.09306375 11.8986547,4.66615854 L11.7489929,4.52977993 L8.32042148,1.67263708 C7.52263523,1.0078152 6.38503903,0.96870803 5.54727514,1.55531557 Z M8.57142857,9.2512859 C8.88701986,9.2512859 9.14285714,9.50712319 9.14285714,9.82271447 C9.14285714,10.1383058 8.88701986,10.394143 8.57142857,10.394143 L5.14285714,10.394143 C4.82726586,10.394143 4.57142857,10.1383058 4.57142857,9.82271447 C4.57142857,9.50712319 4.82726586,9.2512859 5.14285714,9.2512859 L8.57142857,9.2512859 Z" id="形状"></path>
                            </g>
                        </g>
                    </g>
                </g>
            </g>
        </g>
    </g>
</svg>