<?xml version="1.0" encoding="UTF-8"?>
<svg width="16px" height="16px" viewBox="0 0 16 16" version="1.1" xmlns="http://www.w3.org/2000/svg" xmlns:xlink="http://www.w3.org/1999/xlink">
    <g id="页面-1" stroke="none" stroke-width="1" fill="none" fill-rule="evenodd" fill-opacity="0.7">
        <g id="投屏界面-竖屏" transform="translate(-1533.000000, -404.000000)" fill="#000000" fill-rule="nonzero">
            <g id="编组-3" transform="translate(1317.000000, 344.000000)">
                <g id="编组" transform="translate(122.000000, 50.000000)">
                    <g id="-mockplus-" transform="translate(84.000000, 0.000000)">
                        <g id="-mockplus-" transform="translate(10.000000, 10.000000)">
                            <g id="ICON-/-Action-/-Add" transform="translate(1.142857, 2.285714)">
                                <path d="M6.89965635,7.02998981 C6.70491717,7.02998981 6.53486323,6.9976939 6.39498017,6.93377493 L0.41360737,4.20678957 C0.157155069,4.08904408 0.00355796576,3.86700975 6.37064027e-05,3.61133385 C-0.00261334497,3.42495958 0.0782994186,3.07037748 0.648802932,2.78778832 L5.80596271,0.239776095 C6.29761057,-0.00378885036 6.94628404,-0.0778002958 7.31999128,0.0924260432 L13.3006784,2.82142988 C13.5550736,2.93715686 13.7093564,3.1591912 13.7142225,3.4148671 C13.7168991,3.60124138 13.636672,3.95716915 13.0641114,4.24043114 L7.90695162,6.78911619 C7.59339008,6.94129227 7.24941296,7.02354721 6.89965635,7.02998981 Z M6.82491491,6.01670583 C6.82971482,6.01670583 6.85508577,6.02074282 6.89897065,6.02074282 C7.06491038,6.02074282 7.2788492,5.96826199 7.44410321,5.88617656 L12.3098399,3.48215024 L6.88937083,1.0088223 C6.89279933,1.01016797 6.86399987,1.00545815 6.81531508,1.00545815 C6.64868966,1.00545815 6.43406513,1.05861183 6.26812542,1.14069724 L1.4023887,3.54539638 L6.82491491,6.01670583 C6.82422922,6.01737866 6.82422922,6.01670583 6.82491491,6.01670583 Z M7.90626591,9.80138202 L13.0634257,7.25269697 C13.6359863,6.96943499 13.7162134,6.61418005 13.7135368,6.42713293 C13.7086707,6.17145703 13.5543879,5.94942269 13.299307,5.83369571 C13.1278982,5.75707028 12.9275654,5.77811315 12.7765704,5.88860375 C12.6255753,5.99909435 12.5478793,6.18149893 12.573835,6.36455963 L7.44341752,8.89978805 C7.18833662,9.02628033 6.89279934,9.05050227 6.82697201,9.03233581 L1.31599033,6.518638 C1.43867441,6.32650874 1.41570638,6.07767975 1.25983858,5.91030597 C1.10397077,5.74293219 0.853474952,5.69811056 0.647431528,5.80072698 C0.0776137093,6.08398896 -0.00261334497,6.43857107 6.31924268e-05,6.62561817 C0.00424367514,6.87994842 0.157840778,7.10198275 0.412921661,7.21972824 L6.39429446,9.94873207 C6.54377735,10.016688 6.71863119,10.0456198 6.90171346,10.0456198 C7.25087066,10.0382461 7.59399362,9.95482229 7.90626591,9.80138202 Z M7.90626591,12.3278636 L13.0634257,9.77985141 C13.6359863,9.49658943 13.7162134,9.14133449 13.7135368,8.95428739 C13.7086707,8.69861149 13.5543879,8.47657715 13.299307,8.36017733 C13.127889,8.28403635 12.9278478,8.30528766 12.7770097,8.41566339 C12.6261716,8.52603912 12.5483551,8.70811013 12.573835,8.89104124 L7.44410321,11.4262697 C7.18765091,11.552762 6.89279934,11.576311 6.82697201,11.5588174 L1.31599033,9.04579244 C1.41128507,8.89602262 1.42012097,8.7083413 1.33930417,8.55058859 C1.27818859,8.43070158 1.17079787,8.33973754 1.04100352,8.29791653 C0.911209162,8.25609552 0.769766824,8.26688313 0.648117222,8.32788142 C0.0782994039,8.61047058 -0.00261334497,8.96505267 6.37036924e-05,9.15142697 C0.00355796576,9.40643003 0.157155069,9.62846437 0.41360737,9.74688268 L6.39566586,12.4758865 C6.54446306,12.5431697 6.7193169,12.5714286 6.90102775,12.5714286 C7.25029581,12.5638518 7.5935487,12.4806831 7.90626591,12.3278636 Z" id="形状"></path>
                            </g>
                        </g>
                    </g>
                </g>
            </g>
        </g>
    </g>
</svg>