<?xml version="1.0" encoding="UTF-8"?>
<svg width="16px" height="16px" viewBox="0 0 16 16" version="1.1" xmlns="http://www.w3.org/2000/svg" xmlns:xlink="http://www.w3.org/1999/xlink">
    <g id="页面-1" stroke="none" stroke-width="1" fill="none" fill-rule="evenodd">
        <g id="投屏界面-竖屏" transform="translate(-1701.000000, -404.000000)">
            <g id="编组-3" transform="translate(1317.000000, 344.000000)">
                <g id="编组" transform="translate(122.000000, 50.000000)">
                    <g id="-mockplus-" transform="translate(252.000000, 0.000000)">
                        <g id="-mockplus-" transform="translate(10.000000, 10.000000)">
                            <g id="ICON-/-Action-/-Add" transform="translate(2.000000, 1.000000)">
                                <path d="M2,14 C0.8954305,14 0,13.1045695 0,12 L0,2 C0,0.8954305 0.8954305,0 2,0 L10,0 C11.1045695,0 12,0.8954305 12,2 L12.0009561,7.35525927 C12.6227502,8.06025766 13,8.98607312 13,10 C13,12.165407 11.2793408,13.9289325 9.13069362,13.9979052 L2,14 Z M10,1 L2,1 C1.44771525,1 1,1.44771525 1,2 L1,12 C1,12.5522847 1.44771525,13 2,13 L6.35525927,13.0009561 C5.52421057,12.2679883 5,11.1952121 5,10 C5,7.790861 6.790861,6 9,6 C9.7290322,6 10.4125119,6.1950335 11.0011092,6.53577067 L11,2 C11,1.44771525 10.5522847,1 10,1 Z M9,7 C7.34314575,7 6,8.34314575 6,10 C6,11.6568542 7.34314575,13 9,13 C10.6568542,13 12,11.6568542 12,10 C12,8.34314575 10.6568542,7 9,7 Z M9,8 C10.1045695,8 11,8.8954305 11,10 C11,11.1045695 10.1045695,12 9,12 L9,8 Z M8.5,2 C8.77614237,2 9,2.22385763 9,2.5 C9,2.77614237 8.77614237,3 8.5,3 L3.5,3 C3.22385763,3 3,2.77614237 3,2.5 C3,2.22385763 3.22385763,2 3.5,2 L8.5,2 Z" id="形状结合" fill-opacity="0.7" fill="#000000" fill-rule="nonzero"></path>
                                <g id="编组" transform="translate(5.000000, 6.000000)"></g>
                            </g>
                        </g>
                    </g>
                </g>
            </g>
        </g>
    </g>
</svg>