<?xml version="1.0" encoding="UTF-8"?>
<svg width="52px" height="52px" viewBox="0 0 52 52" version="1.1" xmlns="http://www.w3.org/2000/svg" xmlns:xlink="http://www.w3.org/1999/xlink">
    <title>电脑-已连接</title>
    <defs>
        <filter x="-11.6%" y="4.8%" width="123.3%" height="109.3%" filterUnits="objectBoundingBox" id="filter-1">
            <feOffset dx="0" dy="1" in="SourceAlpha" result="shadowOffsetOuter1"></feOffset>
            <feGaussianBlur stdDeviation="1.5" in="shadowOffsetOuter1" result="shadowBlurOuter1"></feGaussianBlur>
            <feColorMatrix values="0 0 0 0 0   0 0 0 0 0   0 0 0 0 0  0 0 0 0.15 0" type="matrix" in="shadowBlurOuter1" result="shadowMatrixOuter1"></feColorMatrix>
            <feMerge>
                <feMergeNode in="shadowMatrixOuter1"></feMergeNode>
                <feMergeNode in="SourceGraphic"></feMergeNode>
            </feMerge>
        </filter>
        <path d="M3.53875236,0 L36.9728755,0 C38.9272745,-8.03106475e-16 40.5116279,1.5843534 40.5116279,3.53875236 L40.5116279,27.0303776 L40.5116279,27.0303776 L0,27.0303776 L0,3.53875236 C-6.83434053e-16,1.5843534 1.5843534,1.69128489e-15 3.53875236,0 Z" id="path-2"></path>
        <linearGradient x1="18.6039735%" y1="29.1545758%" x2="120.533046%" y2="91.5042686%" id="linearGradient-4">
            <stop stop-color="#192A5E" offset="0%"></stop>
            <stop stop-color="#3D7592" offset="100%"></stop>
        </linearGradient>
        <path d="M4.71300245,1.19451864 L35.7986255,1.19451864 C37.7530244,1.19451864 39.3373778,2.77887204 39.3373778,4.733271 L39.3373778,25.835859 L39.3373778,25.835859 L1.17425008,25.835859 L1.17425008,4.733271 C1.17425008,2.77887204 2.75860348,1.19451864 4.71300245,1.19451864 Z" id="path-5"></path>
        <linearGradient x1="48.4906452%" y1="0%" x2="89.6297784%" y2="100%" id="linearGradient-7">
            <stop stop-color="#FFFFFF" stop-opacity="0.333835842" offset="0%"></stop>
            <stop stop-color="#FFFFFF" stop-opacity="0" offset="100%"></stop>
        </linearGradient>
        <linearGradient x1="50%" y1="0%" x2="50%" y2="65.4361786%" id="linearGradient-8">
            <stop stop-color="#68778F" offset="0%"></stop>
            <stop stop-color="#A6B0C0" offset="100%"></stop>
        </linearGradient>
    </defs>
    <g id="新" stroke="none" stroke-width="1" fill="none" fill-rule="evenodd">
        <g id="跨端协同-切图" transform="translate(-156, -900)">
            <g id="电脑-已连接" transform="translate(156, 900)">
                <rect id="矩形" x="0" y="0" width="52" height="52"></rect>
                <g id="电脑" filter="url(#filter-1)" transform="translate(6.0465, 1.814)">
                    <g id="矩形-+-路径-4-蒙版" transform="translate(0, 6.0465)">
                        <mask id="mask-3" fill="white">
                            <use xlink:href="#path-2"></use>
                        </mask>
                        <use id="蒙版" fill="#ECF3FD" xlink:href="#path-2"></use>
                        <mask id="mask-6" fill="white">
                            <use xlink:href="#path-5"></use>
                        </mask>
                        <use id="蒙版" fill="url(#linearGradient-4)" xlink:href="#path-5"></use>
                        <rect id="矩形" fill="#6E88A3" mask="url(#mask-6)" x="4.12740142" y="4.57431749" width="2.26086957" height="2.26086957" rx="0.565217391"></rect>
                        <rect id="矩形" fill="#6E88A3" mask="url(#mask-6)" x="4.12740142" y="9.09605662" width="2.26086957" height="2.26086957" rx="0.565217391"></rect>
                        <rect id="矩形" fill="#6E88A3" mask="url(#mask-6)" x="4.12740142" y="13.6177958" width="2.26086957" height="2.26086957" rx="0.565217391"></rect>
                        <polygon id="路径-4" fill="url(#linearGradient-7)" mask="url(#mask-6)" points="14.0132653 0 31.421844 27.0303776 40.5116279 27.0303776 40.5116279 0"></polygon>
                    </g>
                    <path d="M0,32.923181 L40.5116279,32.923181 L40.5116279,33.8526211 C40.5116279,35.80702 38.9272745,37.3913734 36.9728755,37.3913734 L3.53875236,37.3913734 C1.5843534,37.3913734 1.57161247e-15,35.80702 0,33.8526211 L0,32.923181 L0,32.923181 Z" id="矩形" fill="#CAD9EF"></path>
                    <path d="M13.9015887,42.3255814 C13.4980623,42.3273566 13.2080768,42.2706426 13.031632,42.1553971 C12.8644738,42.0462171 12.8797338,41.9003532 13.0774119,41.7178053 L13.1120473,41.687041 L14.0160754,41.2437704 C14.941643,40.7899383 15.5630484,39.8857406 15.6549933,38.8590054 L15.7864209,37.3913734 L15.7864209,37.3913734 L24.0520124,37.3913734 L24.18344,38.8590054 C24.275385,39.8857406 24.8967903,40.7899383 25.822358,41.2437704 L26.726386,41.687041 L26.726386,41.687041 C26.956441,41.8840329 26.9832461,42.0401516 26.8068013,42.1553971 C26.6421196,42.2629596 26.3785311,42.3195346 26.0160361,42.3251222 L13.9015887,42.3255814 Z" id="路径" fill="url(#linearGradient-8)"></path>
                    <g id="list_add_normal" transform="translate(28.9535, 28.186)">
                        <rect id="Rectangle-9" stroke="#FFFFFF" stroke-width="1.13043478" fill="#53DD00" x="0.565217391" y="0.565217391" width="12.8695652" height="12.8695652" rx="6.43478261"></rect>
                        <g id="连接" transform="translate(3, 3)" fill="#FFFFFF" fill-rule="nonzero">
                            <path d="M1.85102026,4.09629709 C1.96550631,4.21042697 1.97822699,4.38758904 1.88918227,4.51572608 L1.85102026,4.56126056 L0.990659728,5.41894444 C0.549259742,5.8589712 0.549259742,6.57239553 0.990659728,7.01242229 C1.40882814,7.42928974 2.07313853,7.45123014 2.51721662,7.07824347 L2.58911048,7.01242229 L3.43698787,6.1671827 C3.56578468,6.03878659 3.77460558,6.03878659 3.90340239,6.1671827 C4.01788845,6.28131259 4.03060912,6.45847466 3.94156441,6.58661169 L3.90340239,6.63214617 L3.055525,7.47738576 C2.35653138,8.17420475 1.22323882,8.17420475 0.524245209,7.47738576 C-0.148859751,6.80637488 -0.173789564,5.7338925 0.449455769,5.03314299 L0.524245209,4.95398097 L1.38460574,4.09629709 C1.51340255,3.96790097 1.72222344,3.96790097 1.85102026,4.09629709 Z M4.89905764,3.10094236 C5.03364745,3.23553217 5.03364745,3.45374536 4.89905764,3.58833517 L3.58833517,4.89905764 C3.45374536,5.03364745 3.23553217,5.03364745 3.10094236,4.89905764 C2.96635255,4.76446783 2.96635255,4.54625464 3.10094236,4.41166483 L4.41166483,3.10094236 C4.54625464,2.96635255 4.76446783,2.96635255 4.89905764,3.10094236 Z M7.47738576,0.522614243 C8.14839664,1.19362512 8.17324889,2.2661075 7.55194252,2.96685701 L7.47738576,3.04601903 L6.61970187,3.90370291 C6.49130576,4.03209903 6.28313452,4.03209903 6.15473841,3.90370291 C6.04060852,3.78957303 6.02792743,3.61241096 6.11669511,3.48427392 L6.15473841,3.43873944 L7.01242229,2.58105556 C7.45244905,2.1410288 7.45244905,1.42760447 7.01242229,0.987577712 C6.59555483,0.570710257 5.93331116,0.548769865 5.49061463,0.921756535 L5.41894444,0.987577712 L4.56126056,1.84526159 C4.43286444,1.97365771 4.2246932,1.97365771 4.09629709,1.84526159 C3.98216721,1.73113171 3.96948611,1.55396964 4.05825379,1.4258326 L4.09629709,1.38029813 L4.95398097,0.522614243 C5.65079996,-0.174204748 6.78056677,-0.174204748 7.47738576,0.522614243 Z" id="形状"></path>
                        </g>
                    </g>
                </g>
            </g>
        </g>
    </g>
</svg>